#tb 0: 1/90000
0,          0,          0,        0,    18816, 0xc3fe9fc7
0,       3003,       3003,        0,    18816, 0x6ddf972f
0,       6006,       6006,        0,    18816, 0x72808b6e
0,       9009,       9009,        0,    18816, 0x8f09857f
0,      12012,      12012,        0,    18816, 0xe8027c00
0,      15015,      15015,        0,    18816, 0x308670cf
0,      18018,      18018,        0,    18816, 0x0e656170
0,      21021,      21021,        0,    18816, 0x594e54a4
0,      24024,      24024,        0,    18816, 0x36944b05
0,      27027,      27027,        0,    18816, 0x87013a34
0,      30030,      30030,        0,    18816, 0xc0f32f0d
0,      33033,      33033,        0,    18816, 0x911f1951
0,      36036,      36036,        0,    18816, 0xad590d59
0,      39039,      39039,        0,    18816, 0x943afff0
0,      42042,      42042,        0,    18816, 0x7f5ef719
0,      45045,      45045,        0,    18816, 0x889feafc
0,      48048,      48048,        0,    18816, 0x4334e12b
0,      51051,      51051,        0,    18816, 0xd080cc67
0,      54054,      54054,        0,    18816, 0xc3c1c04c
0,      57057,      57057,        0,    18816, 0x816bae4b
0,      60060,      60060,        0,    18816, 0xed23a5c7
0,      63063,      63063,        0,    18816, 0x86689c2f
0,      66066,      66066,        0,    18816, 0x63408c52
0,      69069,      69069,        0,    18816, 0x399c79d6
0,      72072,      72072,        0,    18816, 0xf0ff63bf
0,      75075,      75075,        0,    18816, 0xa6185353
0,      78078,      78078,        0,    18816, 0xe33d46fc
0,      81081,      81081,        0,    18816, 0xd58d3c6d
0,      84084,      84084,        0,    18816, 0xc94a27ea
0,      87087,      87087,        0,    18816, 0x62f31c59
0,      90090,      90090,        0,    18816, 0x71880825
0,      93093,      93093,        0,    18816, 0xa6ce01d7
0,      96096,      96096,        0,    18816, 0xa1d4fc06
0,      99099,      99099,        0,    18816, 0xc208f570
0,     102102,     102102,        0,    18816, 0xc862e637
0,     105105,     105105,        0,    18816, 0xcf9ed93a
0,     108108,     108108,        0,    18816, 0x85a8cbcc
0,     111111,     111111,        0,    18816, 0x650ac6c1
0,     114114,     114114,        0,    18816, 0xb418c12b
0,     117117,     117117,        0,    18816, 0x9fe5b412
0,     120120,     120120,        0,    18816, 0x80f6a7c1
0,     123123,     123123,        0,    18816, 0x283299e4
0,     126126,     126126,        0,    18816, 0x15429202
0,     129129,     129129,        0,    18816, 0x9f0f8c8a
0,     132132,     132132,        0,    18816, 0x8e828811
0,     135135,     135135,        0,    18816, 0xaac67993
0,     138138,     138138,        0,    18816, 0x8f3b6f4f
0,     141141,     141141,        0,    18816, 0x0b125f95
0,     144144,     144144,        0,    18816, 0xb4e75d14
0,     147147,     147147,        0,    18816, 0x1bac5933
0,     150150,     150150,        0,    18816, 0x300b521b
0,     153153,     153153,        0,    18816, 0x51174590
0,     156156,     156156,        0,    18816, 0x03df3d70
0,     159159,     159159,        0,    18816, 0x338a344a
0,     162162,     162162,        0,    18816, 0x45ad328d
0,     165165,     165165,        0,    18816, 0x2d4e321a
0,     168168,     168168,        0,    18816, 0x15932563
0,     171171,     171171,        0,    18816, 0x9b4f1c76
0,     174174,     174174,        0,    18816, 0x8e31153c
0,     177177,     177177,        0,    18816, 0xfb391185
0,     180180,     180180,        0,    18816, 0x93ee0cdc
0,     183183,     183183,        0,    18816, 0xddeb0642
0,     186186,     186186,        0,    18816, 0xda6cf529
0,     189189,     189189,        0,    18816, 0xdbd6f085
0,     192192,     192192,        0,    18816, 0x357aec81
0,     195195,     195195,        0,    18816, 0x36eaecca
0,     198198,     198198,        0,    18816, 0x6535ee02
0,     201201,     201201,        0,    18816, 0xb7dfe466
0,     204204,     204204,        0,    18816, 0x58d3d86b
0,     207207,     207207,        0,    18816, 0xd8aad64b
0,     210210,     210210,        0,    18816, 0x37ecd588
0,     213213,     213213,        0,    18816, 0xe2f9cee4
0,     216216,     216216,        0,    18816, 0xcd1ac93e
0,     219219,     219219,        0,    18816, 0x18e1be81
0,     222222,     222222,        0,    18816, 0xa05bb9d7
0,     225225,     225225,        0,    18816, 0xe0ebb663
0,     228228,     228228,        0,    18816, 0x7d61b39a
0,     231231,     231231,        0,    18816, 0x01b8acb5
0,     234234,     234234,        0,    18816, 0x7577aa8b
0,     237237,     237237,        0,    18816, 0x6bbda4b5
0,     240240,     240240,        0,    18816, 0xd0cc9b29
0,     243243,     243243,        0,    18816, 0xb2858cbb
0,     246246,     246246,        0,    18816, 0x93608c9d
0,     249249,     249249,        0,    18816, 0x80c38e03
0,     252252,     252252,        0,    18816, 0x37d6843c
0,     255255,     255255,        0,    18816, 0xacc47b9a
0,     258258,     258258,        0,    18816, 0xc4317178
0,     261261,     261261,        0,    18816, 0xc92f6ebd
0,     264264,     264264,        0,    18816, 0xc1217a3b
0,     267267,     267267,        0,    18816, 0x03a37ccb
0,     270270,     270270,        0,    18816, 0xf38c71a2
0,     273273,     273273,        0,    18816, 0x68ff697d
0,     276276,     276276,        0,    18816, 0x0fe358e5
0,     279279,     279279,        0,    18816, 0x58455870
0,     282282,     282282,        0,    18816, 0xc9075ce7
0,     285285,     285285,        0,    18816, 0x16685773
0,     288288,     288288,        0,    18816, 0x1b434c0e
0,     291291,     291291,        0,    18816, 0x008e4c97
0,     294294,     294294,        0,    18816, 0xb4d04f4f
0,     297297,     297297,        0,    18816, 0xc8c94848
0,     300300,     300300,        0,    18816, 0x64664191
0,     303303,     303303,        0,    18816, 0xd591367f
0,     306306,     306306,        0,    18816, 0xc70d3141
0,     309309,     309309,        0,    18816, 0x8d492655
0,     312312,     312312,        0,    18816, 0x7e7f22c8
0,     315315,     315315,        0,    18816, 0x335d23f9
0,     318318,     318318,        0,    18816, 0x0a7f22b6
0,     321321,     321321,        0,    18816, 0x6cf51cb2
0,     324324,     324324,        0,    18816, 0x312516e1
0,     327327,     327327,        0,    18816, 0x8a3c0c7a
0,     330330,     330330,        0,    18816, 0x997d0d20
0,     333333,     333333,        0,    18816, 0xffbd117e
0,     336336,     336336,        0,    18816, 0x855808ca
0,     339339,     339339,        0,    18816, 0xe335fb94
0,     342342,     342342,        0,    18816, 0x12e6f95c
0,     345345,     345345,        0,    18816, 0x2d62f845
0,     348348,     348348,        0,    18816, 0x7e63f591
0,     351351,     351351,        0,    18816, 0x7463f175
0,     354354,     354354,        0,    18816, 0x1521e0d2
0,     357357,     357357,        0,    18816, 0x96a8dbce
